<svg width="27" height="22" viewBox="0 0 27 22" fill="none" xmlns="http://www.w3.org/2000/svg">
<path d="M0.483789 1.28494C0.00656238 1.76654 -0.0185548 2.1214 0.0065624 9.06655C0.0316796 13.0968 0.081914 16.1891 0.132148 15.9863C0.182383 15.7836 0.634492 13.4516 1.11172 10.8155C1.78988 7.06412 2.09129 5.89814 2.49316 5.49259C2.99551 4.96029 3.2718 4.96029 14.0471 4.88425C20.5022 4.85891 25.0986 4.73217 25.0986 4.58009C25.0986 4.45335 24.8475 4.17453 24.5461 3.97175C24.0688 3.61689 22.9386 3.5662 17.2621 3.5662C10.1037 3.5662 9.77715 3.5155 9.77715 2.27349C9.77715 2.02001 9.55109 1.56376 9.2748 1.28494C8.8227 0.828693 8.44594 0.777999 4.8793 0.777999C1.31266 0.777999 0.935898 0.828693 0.483789 1.28494Z" fill="url(#paint0_linear_1_462)"/>
<path d="M3.04563 6.05024C2.71911 6.37975 2.31723 8.00197 1.61395 11.9561C1.08649 14.9725 0.73485 17.6086 0.810201 17.8367C0.960905 18.2169 1.71442 18.2676 8.47094 18.2676H15.981L16.2824 17.2791C16.7094 15.7836 17.8145 14.9725 19.3467 14.9725C20.3448 14.9725 21.3809 14.9408 21.5693 14.2754C21.5693 14.0726 21.8205 13.2108 22.3228 12.7546C23.1768 11.9942 23.5161 12.1336 24.7218 12.2857L26.0279 12.4377L26.5804 9.24399C27.0577 6.58253 27.1079 5.99954 26.8316 5.82211C26.6307 5.69538 21.3058 5.59399 15.0014 5.59399C4.25126 5.59399 3.47262 5.61933 3.04563 6.05024Z" fill="url(#paint1_linear_1_462)"/>
<path d="M23.4912 14.1107C23.1145 14.4655 22.9889 14.8204 23.0642 15.2766C23.1145 15.6569 20.1758 16.9749 19.799 16.7214C18.4176 15.8343 17.0864 17.786 18.3171 18.9013C18.7441 19.2815 18.9701 19.3322 19.5227 19.1294C20.0753 18.9013 20.4521 18.9773 21.6326 19.5857C22.4363 19.9659 23.0642 20.3968 23.0642 20.4982C22.9889 21.0305 23.1396 21.3346 23.7173 21.7148C24.295 22.0951 24.3955 22.0951 24.9732 21.7148C25.4001 21.436 25.6011 21.0558 25.6011 20.5742C25.6011 19.5857 25.0485 19.1801 23.9433 19.3575C22.8884 19.535 20.5776 18.5211 20.5776 17.8874C20.5776 17.3044 23.0894 15.961 23.6168 16.2652C24.2699 16.5947 24.7471 16.544 25.1992 16.0878C25.7769 15.5301 25.7016 14.5669 25.0485 14.1107C24.3452 13.6037 23.9685 13.6037 23.4912 14.1107Z" fill="url(#paint2_linear_1_462)"/>
<defs>
<linearGradient id="paint0_linear_1_462" x1="1.48382" y1="-0.199397" x2="17.7183" y2="18.7282" gradientUnits="userSpaceOnUse">
<stop stop-color="#D9A112"/>
<stop offset="1" stop-color="#FAC712"/>
</linearGradient>
<linearGradient id="paint1_linear_1_462" x1="2.34898" y1="4.77999" x2="15.1002" y2="23.4143" gradientUnits="userSpaceOnUse">
<stop stop-color="#D9A112"/>
<stop offset="1" stop-color="#FAC712"/>
</linearGradient>
<linearGradient id="paint2_linear_1_462" x1="18.2901" y1="13.1993" x2="26.518" y2="18.6646" gradientUnits="userSpaceOnUse">
<stop stop-color="#D9A112"/>
<stop offset="1" stop-color="#FAC712"/>
</linearGradient>
</defs>
</svg>
